<?xml version="1.0" standalone="no"?>
<!DOCTYPE svg PUBLIC "-//W3C//DTD SVG 20010904//EN"
 "http://www.w3.org/TR/2001/REC-SVG-20010904/DTD/svg10.dtd">
<svg version="1.0" xmlns="http://www.w3.org/2000/svg"
 width="300.000000pt" height="146.000000pt" viewBox="0 0 300.000000 146.000000"
 preserveAspectRatio="xMidYMid meet">
<metadata>
Created by potrace 1.10, written by Peter Selinger 2001-2011
</metadata>
<g transform="translate(0.000000,146.000000) scale(0.100000,-0.100000)"
fill="#000000" stroke="none">
<path d="M0 730 l0 -730 1500 0 1500 0 0 730 0 730 -1500 0 -1500 0 0 -730z
m130 650 c0 -3 -13 -5 -29 -5 -18 0 -27 4 -24 12 3 6 11 9 19 6 8 -3 14 0 14
6 0 6 -5 11 -11 11 -5 0 -7 5 -3 11 4 8 12 3 20 -12 7 -13 13 -26 14 -29z m17
3 c-3 -10 -5 -2 -5 17 0 19 2 27 5 18 2 -10 2 -26 0 -35z m503 18 c0 -34 -16
-49 -33 -32 -9 9 -8 11 6 6 13 -6 17 -2 17 18 0 14 -6 28 -12 30 -8 3 -6 6 5
6 12 1 17 -7 17 -28z m-477 -6 c-3 -9 -8 -14 -10 -11 -3 3 -2 9 2 15 9 16 15
13 8 -4z m34 -2 c-4 -3 -7 0 -7 7 0 7 3 10 7 7 3 -4 3 -10 0 -14z m46 1 c-7
-20 -29 -23 -29 -5 0 9 8 17 17 17 9 0 15 -6 12 -12z m24 -1 c-4 -3 -7 0 -7 7
0 7 3 10 7 7 3 -4 3 -10 0 -14z m106 -3 c-3 -11 -7 -20 -9 -20 -2 0 -4 9 -4
20 0 11 4 20 9 20 5 0 7 -9 4 -20z m34 -12 c-3 -7 -5 -2 -5 12 0 14 2 19 5 13
2 -7 2 -19 0 -25z m26 12 c-3 -12 -8 -19 -11 -16 -5 6 5 36 12 36 2 0 2 -9 -1
-20z m34 3 c-4 -3 -7 0 -7 7 0 7 3 10 7 7 3 -4 3 -10 0 -14z m30 -15 c-3 -7
-5 -2 -5 12 0 14 2 19 5 13 2 -7 2 -19 0 -25z m36 12 c-3 -12 -8 -19 -11 -16
-5 6 5 36 12 36 2 0 2 -9 -1 -20z m34 3 c-4 -3 -7 0 -7 7 0 7 3 10 7 7 3 -4 3
-10 0 -14z m98 8 c-3 -5 2 -17 11 -25 8 -9 11 -16 6 -16 -15 0 -34 28 -27 40
3 5 8 10 11 10 3 0 3 -4 -1 -9z m32 -8 c-4 -3 -7 0 -7 7 0 7 3 10 7 7 3 -4 3
-10 0 -14z m20 0 c-4 -3 -7 0 -7 7 0 7 3 10 7 7 3 -4 3 -10 0 -14z m64 -23 c5
0 14 10 19 23 9 22 9 21 9 -4 1 -21 -3 -26 -21 -25 -16 1 -23 8 -24 21 -1 15
0 16 3 3 3 -10 9 -18 14 -18z m46 23 c-4 -3 -7 0 -7 7 0 7 3 10 7 7 3 -4 3
-10 0 -14z m-500 -27 c1 -1 -14 -2 -35 -2 -20 -1 -29 1 -19 3 9 3 14 9 11 15
-5 7 28 -5 43 -16z m421 12 c-3 -7 -12 -14 -22 -14 -13 -2 -13 -1 -1 3 8 2 13
9 10 14 -4 5 -1 9 5 9 7 0 10 -6 8 -12z m110 0 c-3 -7 -12 -14 -22 -14 -13 -2
-13 -1 -1 3 8 2 13 9 10 14 -4 5 -1 9 5 9 7 0 10 -6 8 -12z m-393 -8 c-3 -5
-12 -10 -18 -10 -7 0 -6 4 3 10 19 12 23 12 15 0z m100 0 c-3 -5 -12 -10 -18
-10 -7 0 -6 4 3 10 19 12 23 12 15 0z m-378 -7 c-4 -3 -10 -3 -14 0 -3 4 0 7
7 7 7 0 10 -3 7 -7z m2643 -328 c-7 -9 -15 -13 -18 -10 -3 2 1 11 8 20 7 9 15
13 18 10 3 -2 -1 -11 -8 -20z m-5 -45 c-2 -11 1 -20 8 -20 8 0 8 -3 -1 -12
-14 -14 -18 -11 -27 25 -6 21 -4 27 8 27 10 0 15 -7 12 -20z m5 -75 c0 -8 -4
-15 -8 -15 -5 0 -9 7 -9 15 0 8 4 15 9 15 4 0 8 -7 8 -15z m-1532 -53 c3 -16
-2 -22 -17 -22 -24 0 -35 15 -27 36 9 23 40 13 44 -14z m19 -9 c-3 -10 -5 -4
-5 12 0 17 2 24 5 18 2 -7 2 -21 0 -30z m124 30 c-11 -5 -11 -7 0 -14 12 -7
11 -9 -1 -9 -13 0 -13 -1 0 -10 13 -8 12 -10 -2 -10 -13 0 -18 8 -18 25 0 17
5 25 18 24 12 0 13 -2 3 -6z m279 -2 c0 -5 2 -15 5 -23 3 -8 -3 -13 -19 -14
-17 -1 -23 2 -19 12 3 8 9 11 14 8 5 -3 6 2 3 10 -3 9 -1 16 5 16 6 0 11 -4
11 -9z m27 -28 c-3 -10 -5 -4 -5 12 0 17 2 24 5 18 2 -7 2 -21 0 -30z m273 12
c0 -18 -5 -25 -20 -25 -25 0 -26 25 -2 39 23 14 22 14 22 -14z m807 18 c-4 -3
-10 -3 -14 0 -3 4 0 7 7 7 7 0 10 -3 7 -7z m-1454 -23 c22 -27 22 -27 -13 -22
-28 4 -44 22 -19 22 5 0 7 5 4 10 -11 18 10 10 28 -10z m107 -10 c5 0 11 8 13
18 3 12 5 11 6 -6 1 -17 -4 -23 -16 -20 -10 2 -18 10 -19 18 0 9 1 10 3 3 3
-7 8 -13 13 -13z m70 20 c-10 -6 -11 -10 -2 -10 6 0 12 -4 12 -10 0 -5 -6 -10
-14 -10 -12 0 -14 14 -7 38 1 1 7 2 14 2 8 0 7 -4 -3 -10z m55 -11 c0 -7 -8
-15 -17 -17 -18 -3 -25 18 -11 32 10 10 28 1 28 -15z m34 -1 c1 17 21 15 21
-3 0 -8 -9 -15 -20 -15 -14 0 -20 6 -19 23 0 21 1 21 9 2 5 -11 9 -14 9 -7z
m156 1 c0 -7 -8 -15 -17 -17 -18 -3 -25 18 -11 32 10 10 28 1 28 -15z m70 10
c-4 -5 3 -9 15 -9 13 0 19 4 14 11 -4 7 -1 10 7 7 8 -3 15 -12 17 -21 3 -14
-6 -17 -52 -17 -42 0 -56 4 -56 14 0 15 11 21 42 23 10 1 16 -2 13 -8z m103
-14 c3 -17 1 -17 -7 -5 -10 13 -12 13 -21 0 -8 -12 -10 -11 -10 8 0 29 33 27
38 -3z m75 5 c-3 -11 -7 -20 -9 -20 -2 0 -4 9 -4 20 0 11 4 20 9 20 5 0 7 -9
4 -20z m52 -1 c0 -7 -8 -15 -17 -17 -18 -3 -25 18 -11 32 10 10 28 1 28 -15z
m735 1 c0 -5 -4 -10 -10 -10 -5 0 -10 5 -10 10 0 6 5 10 10 10 6 0 10 -4 10
-10z m-890 -445 c0 -8 -6 -15 -14 -15 -17 0 -28 14 -19 24 12 12 33 6 33 -9z
m-76 -1 c26 -10 18 -23 -16 -26 -40 -4 -36 -19 6 -33 67 -22 22 -89 -48 -71
-36 9 -34 30 2 23 15 -3 34 -2 42 3 11 7 6 13 -23 25 -48 20 -57 42 -28 67 24
19 39 22 65 12z m-814 -14 c0 -5 -16 -10 -35 -10 -24 0 -35 -5 -35 -15 0 -10
10 -15 30 -15 17 0 30 -4 30 -10 0 -5 -13 -10 -30 -10 -46 0 -39 -28 8 -32 55
-5 45 -23 -15 -26 l-53 -3 0 65 0 66 50 0 c28 0 50 -4 50 -10z m310 0 c0 -5
-16 -10 -36 -10 -28 0 -35 -3 -32 -17 2 -12 14 -19 36 -21 43 -4 41 -22 -3
-22 -31 0 -35 -3 -35 -25 0 -16 -6 -25 -15 -25 -12 0 -15 14 -15 65 l0 65 50
0 c28 0 50 -4 50 -10z m640 -4 c0 -8 6 -17 13 -20 10 -5 10 -7 0 -12 -18 -8
-16 -53 2 -60 25 -10 17 -26 -12 -22 -24 3 -28 8 -31 38 -2 19 -8 38 -14 41
-6 4 -5 14 3 28 16 24 39 28 39 7z m-538 -30 c4 -6 8 -27 8 -47 0 -36 -1 -37
-39 -37 -47 -1 -70 20 -51 43 7 8 23 15 37 15 14 0 21 4 18 10 -3 6 -17 10
-31 10 -28 0 -33 16 -6 23 22 6 55 -3 64 -17z m126 -6 c3 -9 -4 -10 -27 -5
-24 5 -32 3 -37 -9 -9 -24 14 -48 36 -36 17 9 30 4 30 -11 0 -4 -9 -11 -21
-14 -15 -5 -17 -10 -10 -19 13 -16 4 -26 -23 -26 -15 0 -17 3 -8 9 10 6 7 15
-13 39 -31 38 -30 72 4 88 26 13 62 5 69 -16z m110 7 c6 -5 12 -22 12 -38 0
-47 -61 -66 -94 -30 -47 52 25 112 82 68z m420 7 c12 -8 22 -24 22 -35 0 -15
-7 -19 -37 -19 -25 0 -33 -3 -24 -9 7 -5 22 -6 33 -3 15 3 19 1 16 -9 -6 -18
-42 -23 -67 -9 -29 15 -28 64 1 84 12 9 25 16 28 16 3 0 16 -7 28 -16z m122
-5 c0 -5 -12 -9 -26 -9 -14 0 -23 -4 -19 -10 3 -5 14 -10 25 -10 23 0 34 -28
19 -47 -15 -17 -71 -13 -77 5 -3 9 3 11 21 7 14 -4 27 -2 31 3 3 5 -8 12 -24
16 -37 7 -42 42 -8 55 25 9 58 3 58 -10z m-1130 -25 c0 -28 3 -35 18 -32 11 2
18 14 20 36 2 20 9 32 18 32 10 0 14 -13 14 -49 0 -49 0 -50 -32 -49 -61 0
-68 5 -68 54 0 32 4 44 15 44 11 0 15 -11 15 -36z m830 -14 c0 -38 -4 -50 -15
-50 -11 0 -15 12 -15 50 0 38 4 50 15 50 11 0 15 -12 15 -50z m898 -57 c-4
-22 -22 -20 -26 1 -2 10 3 16 13 16 10 0 15 -7 13 -17z"/>
<path d="M1277 873 c-12 -11 -8 -23 8 -23 8 0 15 7 15 15 0 16 -12 20 -23 8z"/>
<path d="M2000 860 c0 -5 5 -10 11 -10 5 0 7 5 4 10 -3 6 -8 10 -11 10 -2 0
-4 -4 -4 -10z"/>
<path d="M1590 860 c0 -5 5 -10 11 -10 5 0 7 5 4 10 -3 6 -8 10 -11 10 -2 0
-4 -4 -4 -10z"/>
<path d="M1840 860 c0 -5 5 -10 11 -10 5 0 7 5 4 10 -3 6 -8 10 -11 10 -2 0
-4 -4 -4 -10z"/>
<path d="M2080 860 c0 -7 3 -10 7 -7 3 4 3 10 0 14 -4 3 -7 0 -7 -7z"/>
<path d="M1418 308 c9 -9 15 -9 24 0 9 9 7 12 -12 12 -19 0 -21 -3 -12 -12z"/>
<path d="M1644 346 c-8 -21 13 -46 32 -39 20 8 13 47 -9 51 -9 2 -20 -4 -23
-12z"/>
<path d="M2080 350 c0 -5 9 -10 20 -10 11 0 20 5 20 10 0 6 -9 10 -20 10 -11
0 -20 -4 -20 -10z"/>
</g>
</svg>
