<?xml version="1.0" standalone="no"?>
<!DOCTYPE svg PUBLIC "-//W3C//DTD SVG 20010904//EN"
 "http://www.w3.org/TR/2001/REC-SVG-20010904/DTD/svg10.dtd">
<svg version="1.0" xmlns="http://www.w3.org/2000/svg"
 width="900.000000pt" height="486.000000pt" viewBox="0 0 900.000000 486.000000"
 preserveAspectRatio="xMidYMid meet">
<metadata>
Created by potrace 1.10, written by Peter Selinger 2001-2011
</metadata>
<g transform="translate(0.000000,486.000000) scale(0.100000,-0.100000)"
fill="#000000" stroke="none">
<path d="M0 2430 l0 -2430 4500 0 4500 0 0 2430 0 2430 -4500 0 -4500 0 0
-2430z m8475 2355 c59 -58 -3 -118 -89 -85 -34 13 -35 52 -1 85 31 32 59 32
90 0z m365 -40 c0 -14 -4 -25 -10 -25 -11 0 -14 33 -3 43 11 11 13 8 13 -18z
m80 -8 c0 -13 -8 -31 -19 -41 -16 -15 -19 -15 -31 -1 -11 13 -9 20 10 40 29
31 40 32 40 2z m-7810 3 c0 -5 -7 -10 -15 -10 -8 0 -15 5 -15 10 0 6 7 10 15
10 8 0 15 -4 15 -10z m103 -1 c-8 -8 -16 -8 -30 0 -16 9 -14 10 12 11 21 0 26
-3 18 -11z m202 1 c-3 -5 -13 -10 -21 -10 -8 0 -14 5 -14 10 0 6 9 10 21 10
11 0 17 -4 14 -10z m6414 1 c19 -12 6 -41 -17 -41 -27 0 -33 9 -19 31 13 21
16 22 36 10z m-6799 -16 c0 -8 -4 -15 -10 -15 -5 0 -10 7 -10 15 0 8 5 15 10
15 6 0 10 -7 10 -15z m2920 -285 c15 8 21 6 30 -9 5 -11 7 -27 4 -36 -5 -13
-22 -15 -95 -13 l-89 2 0 27 c0 31 23 54 45 45 8 -3 15 -17 15 -31 0 -16 6
-25 15 -25 9 0 15 9 15 24 0 13 3 32 7 41 5 15 8 14 20 -9 11 -22 17 -25 33
-16z m447 -40 c-2 -26 -3 -26 -107 -20 -8 1 -73 0 -143 -2 -72 -2 -132 1 -138
7 -14 14 -11 42 7 49 20 8 34 -1 35 -22 0 -14 3 -13 16 6 18 26 40 28 64 6 16
-14 18 -14 29 6 9 17 14 19 26 9 12 -9 20 -9 38 1 20 10 30 10 55 -1 17 -8 31
-17 31 -21 0 -5 5 -8 11 -8 6 0 8 7 5 16 -4 10 1 25 11 36 16 18 17 18 40 -9
13 -16 22 -39 20 -53z m213 55 c0 -19 19 -29 33 -17 8 7 18 6 32 -4 30 -22 8
-47 -50 -57 -64 -11 -79 -4 -70 31 14 56 55 92 55 47z m4338 -394 c-3 -368 -4
-396 -20 -399 -17 -3 -18 21 -18 401 0 222 3 407 7 410 3 4 12 2 20 -4 11 -10
13 -85 11 -408z m-4158 381 c0 -4 34 -7 75 -6 52 1 78 -3 86 -12 15 -18 33
-18 48 -1 6 8 28 13 48 13 33 -2 38 -5 41 -28 3 -24 0 -26 -48 -32 -28 -4 -55
-4 -60 -1 -15 9 -119 12 -133 3 -6 -4 -19 0 -28 8 -14 13 -18 13 -29 -1 -14
-17 -46 -20 -55 -6 -3 6 4 15 15 21 11 6 20 20 20 30 0 11 5 20 10 20 6 0 10
-3 10 -8z m-304 -28 c8 -30 -6 -47 -32 -42 -35 6 -30 68 5 68 14 0 23 -9 27
-26z m-1111 -319 c0 -25 -4 -30 -25 -30 -28 0 -39 27 -19 51 20 24 44 13 44
-21z m950 15 c0 -8 -14 -19 -32 -24 -23 -7 -36 -19 -43 -39 -7 -21 -14 -27
-26 -23 -8 3 -20 6 -25 6 -12 0 -11 57 2 81 9 17 19 20 67 17 43 -2 57 -7 57
-18z m257 -15 c11 -42 1 -65 -28 -65 -17 0 -27 8 -34 24 -5 14 -19 26 -32 28
-15 2 -24 11 -26 26 -3 22 -1 23 54 20 55 -3 58 -5 66 -33z m1589 -6 c36 -38
33 -53 -9 -57 -27 -3 -34 1 -42 24 -11 29 -5 64 12 64 5 0 23 -14 39 -31z
m579 11 c0 -10 -5 -31 -12 -45 -9 -19 -19 -25 -45 -25 -30 0 -33 3 -33 29 0
38 23 61 61 61 22 0 29 -5 29 -20z m-4222 -17 c2 -9 -11 -13 -47 -13 -39 0
-55 -5 -68 -20 -18 -21 -58 -27 -68 -11 -3 6 7 21 22 36 25 23 35 25 92 23 41
-2 66 -8 69 -15z m207 -18 c0 -23 -4 -30 -20 -30 -21 0 -31 25 -21 51 11 28
41 12 41 -21z m1254 -61 c27 -6 31 -10 31 -40 0 -39 -2 -40 -34 -18 -14 9 -40
14 -62 12 -46 -4 -55 15 -17 36 32 17 39 18 82 10z m1235 -22 c-18 -3 -24 -10
-24 -28 0 -22 4 -24 50 -24 37 0 50 -4 50 -15 0 -12 26 -14 158 -14 86 0 176
0 200 -1 l42 0 0 -40 0 -40 -72 0 c-238 -2 -410 0 -417 5 -5 2 -11 28 -14 56
-4 28 -14 60 -23 70 -14 16 -15 19 -2 19 8 0 23 8 34 18 13 13 22 15 30 8 9
-8 6 -12 -12 -14z m-3135 -8 c-9 -12 -8 -18 7 -29 18 -14 18 -14 -4 -15 -26 0
-39 -24 -24 -43 8 -10 5 -20 -12 -40 -13 -15 -26 -27 -30 -27 -3 0 -6 38 -6
85 0 50 4 85 10 85 6 0 10 -5 10 -11 0 -6 7 -4 15 5 20 20 51 10 34 -10z m126
0 c-15 -8 -41 -13 -59 -13 -24 1 -26 3 -8 6 12 2 34 11 49 18 15 8 31 11 36 8
4 -3 -4 -11 -18 -19z m135 7 c0 -11 9 -23 20 -26 28 -9 25 -25 -5 -25 -18 0
-25 5 -25 20 0 15 -9 22 -32 27 -27 5 -29 7 -13 14 36 14 55 10 55 -10z m275
10 c3 -6 -16 -11 -42 -13 -43 -3 -48 -5 -45 -25 3 -19 -1 -23 -24 -23 -26 0
-26 1 -11 18 22 24 21 32 0 33 -24 2 44 16 84 18 17 0 34 -3 38 -8z m178 3
c11 -11 -3 -24 -18 -18 -8 4 -12 10 -9 15 6 11 18 12 27 3z m49 -121 c0 -146
0 -148 -9 -139 -9 8 -14 246 -6 259 12 20 15 -9 15 -120z m473 115 c4 -4 -4
-10 -19 -14 -17 -4 -26 -13 -27 -28 -1 -16 -2 -17 -6 -3 -5 18 -8 18 -70 20
-27 1 -39 -3 -41 -15 -2 -11 8 -17 40 -22 23 -4 48 -12 56 -18 11 -9 16 -8 23
5 13 22 28 22 45 0 12 -17 13 -17 19 0 5 12 18 17 46 17 26 0 41 -6 48 -17 10
-17 12 -17 26 1 14 19 45 16 45 -4 0 -16 39 -12 71 7 27 16 29 16 42 -1 11
-15 21 -17 49 -12 42 8 61 -9 56 -51 l-3 -28 -282 -3 -283 -2 0 53 c0 39 -5
59 -19 74 -32 34 -6 48 93 48 47 0 88 -3 91 -7z m322 -2 c13 -12 -9 -25 -27
-16 -10 5 -35 10 -55 10 -24 0 -34 4 -29 11 6 11 100 6 111 -5z m1081 8 c13
-4 22 -14 22 -25 0 -18 -2 -18 -36 -4 -20 8 -48 15 -63 15 -20 0 -23 2 -11 10
17 11 54 13 88 4z m1026 -3 c3 -5 0 -11 -8 -14 -19 -8 -57 3 -50 14 7 12 51
12 58 0z m81 -21 c-5 -8 -11 -8 -21 1 -12 10 -12 14 -2 20 16 10 33 -5 23 -21z
m130 5 c0 -16 -6 -20 -34 -18 -18 0 -38 6 -43 11 -18 18 3 33 40 30 29 -2 37
-7 37 -23z m445 15 c11 -7 6 -10 -22 -10 -20 0 -48 -4 -62 -10 -30 -11 -34 -3
-8 16 20 16 71 18 92 4z m322 -29 c-4 -27 -7 -29 -48 -29 -35 0 -51 6 -77 29
-29 26 -30 29 -10 29 12 0 23 -4 25 -10 6 -19 69 -19 86 1 21 24 30 17 24 -20z
m-3731 -18 c5 -254 5 -254 -14 -251 -17 3 -19 15 -22 143 -2 77 -1 143 1 147
3 5 12 8 20 8 10 0 14 -13 15 -47z m69 32 c0 -17 -27 -32 -37 -21 -4 3 2 13
13 21 24 18 24 18 24 0z m351 5 c37 0 18 -17 -20 -18 -25 -1 -43 4 -52 15 -13
15 -11 16 20 10 18 -4 42 -7 52 -7z m339 -5 c0 -8 -9 -15 -19 -15 -11 0 -26
-3 -35 -6 -12 -4 -16 0 -16 15 0 17 6 21 35 21 24 0 35 -5 35 -15z m90 -27 c0
-10 -4 -18 -10 -18 -5 0 -10 15 -10 33 0 24 3 28 10 17 5 -8 10 -23 10 -32z
m338 25 c-2 -10 -12 -18 -23 -18 -11 0 -21 8 -23 18 -3 13 3 17 23 17 20 0 26
-4 23 -17z m270 5 c-7 -20 -48 -23 -48 -4 0 11 9 16 26 16 16 0 24 -5 22 -12z
m404 -8 c0 -11 1 -24 2 -30 1 -5 -3 -11 -9 -12 -5 -2 -11 12 -12 30 -1 34 16
46 19 12z m228 5 c-7 -9 -16 -12 -19 -8 -4 4 -10 11 -15 16 -5 4 3 7 19 7 24
0 26 -2 15 -15z m305 5 c24 13 55 8 55 -9 0 -5 -12 -9 -27 -7 -16 1 -33 -1
-39 -6 -16 -12 -44 1 -44 19 0 13 3 13 15 3 13 -11 20 -11 40 0z m708 -5 c-5
-14 -17 -19 -35 -16 -16 2 -7 -41 12 -61 23 -25 19 -35 -15 -35 -24 0 -25 2
-25 62 l0 62 35 1 c26 1 33 -2 28 -13z m767 -115 l0 -130 -67 1 c-67 1 -68 1
-30 13 35 11 36 12 20 29 -16 16 -16 17 10 17 15 0 30 0 34 -1 3 0 10 6 14 13
9 16 -2 68 -13 68 -5 0 -20 0 -35 0 -36 0 -25 9 15 12 37 3 48 21 26 43 -9 9
-14 22 -11 29 3 7 0 19 -6 25 -8 8 -4 11 16 11 l27 0 0 -130z m-1330 104 c0
-35 -38 -44 -64 -16 -16 18 -15 19 24 19 22 0 40 -1 40 -3z m140 2 c0 -1 -8
-10 -18 -20 -18 -15 -20 -15 -35 2 -16 18 -16 19 18 20 19 1 35 0 35 -2z
m-3215 -26 c3 -5 -3 -10 -15 -10 -12 0 -18 5 -15 10 3 6 10 10 15 10 5 0 12
-4 15 -10z m1230 0 c3 -5 -3 -10 -15 -10 -12 0 -18 5 -15 10 3 6 10 10 15 10
5 0 12 -4 15 -10z m885 0 c0 -5 -7 -10 -15 -10 -8 0 -15 5 -15 10 0 6 7 10 15
10 8 0 15 -4 15 -10z m184 -16 c22 -21 20 -33 -4 -27 -18 5 -20 0 -20 -36 l0
-41 -194 0 c-160 0 -196 -3 -206 -15 -16 -20 -47 -19 -58 2 -7 12 -17 14 -41
10 -51 -11 -61 -1 -61 59 l0 54 34 0 c21 0 36 -6 40 -15 8 -22 157 -21 192 1
23 15 26 15 43 0 24 -22 136 -23 145 -1 3 8 12 15 21 15 9 0 18 -7 21 -15 4
-9 19 -15 35 -15 22 0 29 5 29 20 0 24 4 25 24 4z m-2454 -9 c0 -13 25 -15
165 -15 l165 0 0 -39 0 -40 -144 -3 c-79 -2 -171 -1 -205 0 l-61 4 0 47 c0 57
3 61 47 61 23 0 33 -5 33 -15z m2761 3 c2 -25 -3 -53 -12 -62 -5 -6 -9 6 -9
32 0 23 5 42 10 42 6 0 11 -6 11 -12z m1269 -3 c10 -12 33 -14 119 -11 58 2
128 1 154 -2 l48 -5 -3 -36 -3 -36 -180 -3 c-216 -3 -225 -2 -225 38 0 54 60
91 90 55z m-490 -10 c0 -9 -6 -12 -15 -9 -8 4 -12 10 -9 15 8 14 24 10 24 -6z
m-3655 -24 c7 -12 -12 -24 -25 -16 -11 7 -4 25 10 25 5 0 11 -4 15 -9z m2668
-17 c-4 -12 -8 -13 -14 -3 -9 15 -2 32 11 24 5 -3 6 -13 3 -21z m-73 -3 c0
-11 -4 -23 -10 -26 -6 -4 -10 5 -10 19 0 14 5 26 10 26 6 0 10 -9 10 -19z
m-767 -3 c14 -43 -18 -62 -94 -56 -37 2 -45 7 -47 26 -4 25 16 29 48 10 16
-10 24 -9 47 9 33 26 40 27 46 11z m1949 -15 c20 -18 25 -82 8 -113 -10 -20
-57 -40 -77 -33 -17 6 -17 43 0 43 8 0 22 9 33 21 19 21 19 21 -13 48 -18 15
-33 36 -33 45 0 15 5 17 32 12 17 -3 40 -14 50 -23z m-932 -62 c0 -51 -15 -75
-31 -50 -19 31 -7 99 17 99 10 0 14 -14 14 -49z m-3000 -13 c0 -10 7 -18 16
-18 8 0 12 5 9 10 -16 25 9 29 37 5 29 -25 30 -25 59 -8 16 10 29 21 29 25 0
4 17 7 38 7 21 -1 28 -4 15 -6 -28 -5 -53 -33 -30 -33 9 0 19 -4 22 -10 4 -6
-33 -10 -104 -10 l-111 0 0 43 c0 31 3 38 10 27 5 -8 10 -23 10 -32z m2829
-20 c1 -16 -12 -18 -140 -18 -91 0 -138 4 -134 10 3 6 15 10 26 10 10 0 28 9
38 19 28 28 121 28 121 0 0 -14 7 -19 25 -19 17 0 25 5 25 18 0 10 6 24 13 31
10 10 13 7 19 -11 3 -13 6 -31 7 -40z m-1015 36 c14 -35 -3 -54 -47 -54 -31 0
-38 3 -27 10 8 5 23 10 34 10 12 0 16 5 12 16 -7 17 0 34 14 34 4 0 11 -7 14
-16z m-1504 -10 c0 -25 -26 -44 -62 -43 l-33 1 28 12 c15 7 25 15 21 18 -10
11 6 28 27 28 11 0 19 -7 19 -16z m330 -15 l34 -29 -102 0 c-66 0 -101 4 -97
10 3 6 13 10 22 10 12 0 13 3 4 14 -7 8 -21 12 -31 9 -11 -3 -20 -1 -20 5 0 6
32 10 78 9 71 0 81 -3 112 -28z m494 10 c-20 -22 -13 -26 51 -32 22 -2 -4 -4
-57 -5 -88 -2 -98 0 -108 18 -17 32 -5 38 65 38 63 -1 65 -1 49 -19z m101 11
c-3 -5 -15 -10 -26 -10 -11 0 -17 5 -14 10 3 6 15 10 26 10 11 0 17 -4 14 -10z
m135 -1 c8 -4 24 -11 35 -14 14 -5 16 -9 7 -12 -8 -3 -25 1 -38 8 -18 9 -27
10 -35 2 -13 -13 -59 3 -59 19 0 10 68 8 90 -3z m234 2 c3 -5 -3 -11 -14 -14
-24 -6 -60 2 -60 14 0 12 67 12 74 0z m122 -20 c-4 -6 -15 -11 -25 -11 -9 0
-22 -5 -28 -11 -5 -5 -34 -9 -64 -7 -49 3 -51 4 -24 12 17 5 33 13 36 18 8 12
92 26 103 17 4 -4 5 -12 2 -18z m418 -9 c-13 -20 -104 -31 -104 -12 0 6 8 9
18 6 12 -4 29 3 47 20 20 18 31 22 39 14 7 -7 8 -15 0 -28z m236 13 c0 -2 3
-10 6 -19 5 -13 -2 -16 -42 -16 -44 1 -47 2 -27 13 21 12 23 15 23 37 0 7 6 7
20 0 11 -6 20 -12 20 -15z m119 9 c34 18 87 21 96 6 4 -6 -6 -10 -24 -10 -16
0 -33 -5 -37 -11 -3 -6 -17 -9 -30 -6 -16 3 -24 0 -24 -9 0 -9 -11 -14 -29
-14 -27 0 -29 3 -27 28 2 15 4 29 5 31 0 2 10 -4 20 -13 18 -16 22 -16 50 -2z
m733 4 c14 14 48 16 48 2 0 -5 6 -10 14 -10 8 0 16 -5 18 -11 2 -7 24 -12 50
-12 34 0 51 6 68 23 22 22 23 23 34 3 6 -11 17 -18 24 -16 6 3 12 -2 12 -11 0
-14 -16 -16 -103 -16 -66 0 -107 4 -115 12 -15 15 -51 18 -49 4 1 -6 -15 -12
-35 -14 -22 -2 -38 1 -38 7 0 6 5 11 10 11 6 0 9 3 9 8 -4 26 1 32 21 20 15
-10 22 -10 32 0z m414 1 c16 -26 -41 -50 -83 -35 -23 7 -32 26 -13 26 6 0 10
-4 10 -8 0 -4 9 -8 19 -8 11 0 17 4 15 8 -8 13 6 28 26 28 10 0 22 -5 26 -11z
m536 -9 c10 0 18 5 18 10 0 17 30 11 63 -12 18 -12 29 -18 25 -13 -13 14 35
33 54 21 12 -7 21 -7 28 0 13 13 60 -4 60 -20 0 -5 11 1 25 14 l25 23 0 -21
c0 -18 6 -22 35 -22 22 0 44 8 57 20 23 21 53 26 63 10 3 -5 17 -10 31 -10 13
0 24 -5 24 -10 0 -7 -16 -9 -41 -7 -28 3 -42 0 -46 -9 -4 -11 -47 -14 -210
-14 -165 0 -204 3 -200 13 4 10 -7 13 -41 11 -26 -2 -48 -7 -50 -13 -2 -6 -21
-11 -43 -11 -32 0 -39 3 -39 20 0 11 5 20 10 20 6 0 10 -4 10 -10 0 -15 31
-11 70 9 19 10 39 14 45 9 5 -4 17 -8 27 -8z m-1933 -11 c39 -14 40 -29 1 -29
-20 0 -30 5 -30 15 0 9 -6 12 -15 9 -8 -4 -15 -1 -15 5 0 14 18 14 59 0z
m-744 -18 c6 -11 -22 -19 -47 -13 -10 2 -15 8 -12 13 7 12 51 12 59 0z m2275
-1 c11 -7 4 -10 -25 -10 -29 0 -36 3 -25 10 8 5 20 10 25 10 6 0 17 -5 25 -10z
m-1789 -21 c39 -28 41 -84 3 -128 -24 -29 -30 -31 -92 -31 -59 0 -69 3 -89 27
-13 14 -23 32 -23 40 0 23 38 91 57 102 32 18 112 13 144 -10z m-1582 -8 c11
-7 10 -10 -6 -15 -24 -8 -55 2 -47 15 7 11 35 11 53 0z m369 2 c18 -4 20 -8
10 -14 -17 -11 -65 -11 -72 0 -12 19 18 26 62 14z m590 -3 c18 0 31 -4 28 -9
-9 -14 -160 -4 -165 10 -3 9 11 10 50 6 30 -4 69 -7 87 -7z m836 -16 c3 -9 6
-28 6 -42 0 -38 10 -50 45 -54 18 -2 31 -10 33 -19 2 -14 -7 -18 -48 -20 -77
-6 -90 2 -90 55 0 25 4 56 10 70 11 29 35 34 44 10z m331 -7 c4 -13 5 -46 3
-73 l-3 -49 -58 -3 c-52 -3 -58 -1 -55 15 2 10 12 19 23 21 27 5 45 30 45 62
0 25 16 50 32 50 4 0 10 -10 13 -23z m1625 -20 c0 -34 -37 -87 -60 -87 -25 0
-27 30 -3 68 33 54 63 63 63 19z m-456 -2 c15 -58 -36 -97 -120 -93 -48 3 -60
7 -76 29 -16 21 -17 30 -8 54 l11 29 20 -33 c18 -30 23 -32 67 -29 40 3 49 7
67 35 24 39 31 40 39 8z m974 -3 c51 -46 37 -96 -19 -68 -31 15 -47 59 -29 80
16 20 11 21 48 -12z m-2548 -510 l5 -72 29 15 c46 24 91 19 111 -11 10 -15 18
-41 19 -58 2 -44 -24 -40 -46 7 -12 23 -25 37 -37 37 -19 0 -59 -33 -77 -65
-6 -12 -16 -16 -27 -12 -15 5 -17 23 -17 122 0 106 2 116 18 113 14 -3 18 -17
22 -76z m1738 56 c8 -8 12 -47 12 -110 0 -80 -3 -98 -15 -98 -12 0 -15 15 -15
71 0 69 -1 71 -30 82 -37 14 -38 27 -2 49 33 21 35 21 50 6z m301 -7 c11 -11
24 -37 30 -58 14 -48 14 -143 1 -143 -5 0 -10 11 -10 24 0 14 -10 32 -22 40
-20 15 -24 14 -45 -6 -32 -30 -29 -18 7 27 35 44 38 75 10 100 -11 10 -20 22
-20 27 0 15 30 8 49 -11z m-99 -6 c0 -4 -6 -18 -14 -33 -23 -46 -29 -104 -12
-127 22 -28 20 -35 -10 -35 -26 0 -26 0 -22 73 2 48 10 81 22 100 16 24 36 36
36 22z m-3986 -21 c8 -20 -1 -34 -20 -34 -8 0 -14 8 -14 18 0 33 23 44 34 16z
m598 -59 l3 -40 53 0 c35 1 52 -3 52 -12 0 -7 -19 -13 -52 -15 -46 -3 -53 -6
-56 -25 -4 -28 -22 -30 -29 -4 -2 10 -19 23 -36 28 -32 10 -31 12 18 28 10 3
15 17 15 43 0 69 26 66 32 -3z m3706 13 c30 -30 -2 -93 -36 -71 -21 13 -27 50
-12 69 15 17 32 18 48 2z m-1846 -35 c24 -21 43 -82 30 -95 -13 -13 -32 -1
-32 20 0 31 -29 62 -59 62 -30 0 -50 -18 -69 -62 -14 -35 -42 -37 -42 -4 0 33
40 89 70 97 33 9 81 1 102 -18z m297 10 c27 -23 33 -76 9 -81 -11 -2 -23 8
-33 27 -19 38 -37 33 -87 -21 -46 -52 -68 -47 -68 16 0 50 10 62 38 45 16 -10
26 -9 53 9 41 26 60 27 88 5z m-928 -9 c17 -15 19 -15 34 0 38 38 89 -2 83
-66 -4 -40 -29 -45 -38 -8 -4 16 -13 25 -25 25 -12 0 -21 -9 -25 -25 -4 -16
-14 -26 -28 -28 -18 -3 -23 3 -28 27 -8 39 -29 40 -49 1 -26 -50 -45 -39 -45
25 0 56 12 69 37 44 9 -9 16 -8 28 5 21 20 34 20 56 0z m-532 -4 c22 -11 45
-64 37 -85 -9 -24 -35 -18 -42 10 -7 30 -35 48 -61 38 -10 -3 -30 -19 -45 -36
-35 -40 -58 -31 -58 22 0 46 11 57 39 40 16 -10 24 -10 43 4 26 18 61 21 87 7z
m171 -51 c0 -35 -4 -49 -14 -49 -25 0 -35 55 -15 91 16 31 29 12 29 -42z m170
0 c0 -42 -3 -49 -20 -49 -17 0 -20 7 -20 49 0 30 5 51 13 54 21 8 27 -3 27
-54z m-1390 -26 c0 -7 -9 -13 -20 -13 -16 0 -20 7 -20 38 l0 37 20 -25 c11
-14 20 -31 20 -37z m135 26 c21 -40 12 -49 -19 -19 -21 19 -31 21 -63 15 l-38
-7 19 21 c12 13 31 21 52 21 27 0 36 -6 49 -31z m2938 17 c10 -26 -16 -36 -92
-36 -87 0 -112 10 -92 34 18 22 176 23 184 2z m-3325 -28 c4 -32 0 -34 -33
-12 -13 8 -34 14 -46 12 -12 -2 -24 2 -26 9 -5 13 27 21 72 19 25 -1 31 -6 33
-28z m790 -404 c26 -29 28 -42 7 -50 -18 -7 -20 -45 -4 -61 6 -6 8 -16 5 -22
-9 -15 -46 5 -46 24 0 25 -20 27 -29 2 -12 -30 -23 -38 -39 -28 -9 5 -12 30
-10 77 3 62 5 70 28 81 31 16 59 8 88 -23z m927 0 c19 -24 27 -25 110 -26 71
-1 92 -4 102 -17 6 -9 13 -14 15 -11 2 3 13 23 25 45 18 34 27 40 57 43 27 2
36 -1 36 -12 0 -8 -10 -16 -22 -18 -19 -3 -22 -10 -25 -63 -4 -75 -8 -86 -28
-79 -11 5 -15 16 -13 37 2 18 -2 32 -9 34 -7 3 -13 -3 -13 -14 0 -23 -42 -63
-67 -63 -30 0 -51 22 -55 55 -2 22 -8 30 -23 30 -16 0 -21 -8 -25 -40 -3 -27
-10 -40 -20 -40 -10 0 -16 13 -18 40 -4 49 -17 64 -31 36 -7 -12 -20 -21 -31
-21 -31 0 -50 -11 -50 -30 0 -18 -23 -34 -34 -23 -9 9 -7 136 2 149 20 31 88
24 117 -12z m1615 5 c4 -17 14 -25 32 -27 19 -2 28 -11 33 -30 l8 -27 13 33
c26 59 44 35 44 -58 0 -38 -5 -62 -15 -70 -22 -18 -34 -3 -28 34 7 42 -13 58
-27 22 -8 -22 -16 -26 -50 -26 -22 0 -40 3 -41 8 -5 36 -7 157 -3 164 10 15
28 3 34 -23z m-499 -59 c-1 -41 -3 -76 -4 -77 -1 -1 -34 -4 -74 -8 -67 -7 -72
-6 -83 15 -6 12 -8 29 -4 38 4 9 8 26 8 37 1 16 9 21 40 23 44 4 55 -7 57 -53
1 -29 1 -30 9 -5 4 14 8 44 9 68 1 39 3 43 23 40 20 -3 21 -8 19 -78z m173 61
c11 -12 14 -21 7 -26 -19 -11 -12 -47 10 -52 16 -4 19 -12 17 -37 -3 -27 -7
-31 -37 -34 -77 -8 -105 22 -76 78 9 17 13 35 10 40 -9 15 14 50 34 50 10 0
26 -9 35 -19z m246 -1 c20 -15 25 -28 25 -63 0 -35 -5 -49 -25 -66 -25 -20
-66 -27 -86 -13 -20 14 -44 57 -44 78 0 13 12 36 26 53 30 36 67 40 104 11z
m468 -2 c1 -13 2 -47 4 -76 3 -34 0 -57 -9 -63 -19 -17 -32 -1 -28 34 3 17 7
53 10 80 6 48 22 65 23 25z m-63 -10 c2 -7 5 -39 8 -71 3 -45 0 -60 -11 -64
-18 -8 -32 14 -32 52 0 22 -3 26 -12 17 -7 -7 -29 -12 -50 -12 -46 0 -49 -14
-7 -29 35 -12 30 -31 -8 -31 -33 0 -73 36 -73 66 0 13 10 30 22 38 25 18 74
21 83 6 10 -16 21 -11 33 15 12 26 40 34 47 13z m-1277 -68 c2 -36 -1 -56 -10
-61 -29 -19 -42 45 -22 109 10 32 29 2 32 -48z m-1454 34 c31 -31 11 -62 -27
-42 -22 11 -32 5 -24 -17 4 -8 16 -15 28 -15 31 0 18 -24 -16 -28 -21 -3 -34
4 -51 24 -29 32 -28 29 -7 65 13 22 25 29 49 29 18 0 40 -7 48 -16z m122 1 c2
-5 -13 -20 -33 -33 -30 -19 -38 -21 -49 -10 -8 8 -11 23 -7 36 5 20 11 23 46
20 22 -2 42 -7 43 -13z m62 -34 c4 -55 26 -50 30 7 2 29 8 42 18 42 12 0 14
-12 12 -57 l-3 -58 -35 -3 c-42 -4 -60 16 -60 68 0 67 33 67 38 1z m273 22
c12 -31 1 -84 -18 -90 -8 -3 -13 11 -15 39 -4 56 -32 61 -36 6 -2 -29 -8 -38
-22 -38 -14 0 -20 9 -22 38 -4 54 -32 51 -36 -5 -2 -29 -8 -43 -18 -43 -11 0
-14 14 -14 60 l0 60 85 0 c84 0 86 0 96 -27z m129 -4 c11 -27 11 -35 -3 -58
-21 -36 -69 -41 -91 -9 -19 26 -20 37 -6 72 8 22 16 26 49 26 34 0 40 -4 51
-31z m561 24 c0 -5 2 -26 4 -48 5 -44 -8 -76 -23 -60 -11 11 -22 101 -14 110
8 8 32 6 33 -2z m115 -19 c-4 -14 -2 -32 4 -39 15 -19 -4 -55 -30 -55 -37 0
-49 12 -56 57 -8 52 2 63 55 63 31 0 33 -2 27 -26z m120 0 c-4 -14 -2 -32 4
-39 19 -23 -5 -55 -41 -55 -32 0 -49 27 -49 79 0 36 6 41 53 41 37 0 39 -1 33
-26z m202 10 c28 -19 28 -57 0 -84 -25 -23 -73 -27 -82 -5 -3 8 -12 15 -21 15
-10 0 -15 10 -15 29 0 51 70 79 118 45z m137 -24 c8 -45 -1 -83 -18 -77 -7 2
-13 22 -15 45 -4 57 -32 59 -32 3 0 -42 -16 -63 -31 -40 -10 16 -12 93 -2 102
3 4 25 7 49 7 41 0 42 -1 49 -40z m1139 18 l6 -23 19 24 c24 32 44 19 36 -22
-8 -37 -31 -77 -45 -77 -13 0 -62 98 -55 110 11 18 33 10 39 -12z m190 -3 c9
-13 16 -30 16 -37 0 -20 -42 -58 -66 -58 -27 0 -54 24 -54 48 0 9 -3 27 -6 39
-6 23 6 30 62 32 23 1 36 -6 48 -24z m-2925 -34 c19 -12 -3 -49 -34 -57 -50
-12 -76 18 -31 36 13 5 27 14 31 19 7 13 16 14 34 2z m3391 -473 c25 15 30 15
30 -2 0 -19 -46 -29 -70 -16 -21 11 -25 22 -13 34 4 4 13 -1 20 -11 11 -15 17
-15 33 -5z m-4744 1 c7 -12 -15 -31 -31 -26 -5 2 -11 11 -13 20 -4 19 32 24
44 6z m698 -5 c4 -11 1 -14 -11 -12 -9 2 -18 9 -21 16 -6 18 25 15 32 -4z
m664 -1 c2 -8 -5 -13 -17 -13 -21 0 -35 13 -24 24 10 10 36 3 41 -11z m307 -3
c0 -10 -12 -16 -37 -18 -42 -4 -50 9 -15 26 29 14 52 11 52 -8z m121 5 c23
-12 25 -15 11 -21 -23 -8 -47 2 -47 21 0 18 1 18 36 0z m231 -10 c-16 -16 -37
-20 -37 -7 0 8 42 30 49 25 2 -1 -4 -9 -12 -18z m274 15 c24 -14 25 -30 0 -30
-21 0 -45 23 -34 33 8 9 11 9 34 -3z m120 0 c26 -14 24 -32 -3 -28 -13 2 -24
11 -26 21 -4 20 2 21 29 7z m318 -3 c13 -16 5 -27 -21 -27 -18 0 -25 20 -11
33 10 10 19 8 32 -6z m961 -2 c0 -8 -7 -15 -15 -15 -8 0 -15 7 -15 15 0 8 7
15 15 15 8 0 15 -7 15 -15z m150 0 c10 -12 10 -15 -4 -15 -9 0 -16 7 -16 15 0
8 2 15 4 15 2 0 9 -7 16 -15z m768 3 c-3 -7 -11 -13 -18 -13 -7 0 -15 6 -17
13 -3 7 4 12 17 12 13 0 20 -5 18 -12z m506 -3 c23 -17 13 -34 -11 -19 -19 12
-29 34 -16 34 4 0 17 -7 27 -15z m-5008 -10 c18 -13 17 -14 -18 -15 -36 0 -47
8 -31 23 10 11 28 8 49 -8z m522 3 c-5 -15 -78 -24 -78 -9 0 12 18 19 53 20
19 1 27 -3 25 -11z m250 3 c18 -11 -7 -21 -54 -21 -24 0 -34 5 -34 15 0 17 65
21 88 6z m90 -8 c2 -8 -6 -13 -22 -13 -25 0 -33 10 -19 24 10 10 36 3 41 -11z
m102 2 c0 -9 -9 -15 -25 -15 -31 0 -33 17 -2 23 12 2 23 5 25 6 1 0 2 -6 2
-14z m190 0 c0 -9 -9 -15 -25 -15 -16 0 -25 6 -25 15 0 9 9 15 25 15 16 0 25
-6 25 -15z m211 0 c0 -5 -9 -11 -21 -13 -20 -3 -27 8 -13 22 10 9 34 3 34 -9z
m487 3 c-6 -18 -28 -21 -28 -4 0 9 7 16 16 16 9 0 14 -5 12 -12z m242 2 c0
-17 -23 -21 -86 -18 -54 3 -57 4 -34 15 31 15 120 17 120 3z m358 -7 c2 -9 -7
-13 -27 -13 -21 0 -31 5 -31 16 0 19 51 16 58 -3z m342 1 c0 -10 -12 -14 -40
-14 -36 0 -49 8 -35 21 2 3 20 5 40 6 24 1 35 -3 35 -13z m370 7 c0 -6 -5 -13
-10 -16 -15 -9 -43 3 -35 15 8 13 45 13 45 1z m138 -8 c2 -8 -6 -13 -22 -13
-26 0 -40 12 -29 24 11 11 46 2 51 -11z m205 2 c1 -5 -13 -11 -30 -13 -31 -3
-42 6 -26 22 10 10 53 3 56 -9z m157 0 c0 -8 -7 -15 -15 -15 -16 0 -20 12 -8
23 11 12 23 8 23 -8z m190 0 c3 -6 -17 -11 -47 -13 -30 -2 -53 1 -53 7 0 12
13 16 58 16 20 0 39 -4 42 -10z m281 0 c-43 -19 -61 -19 -61 0 0 11 12 15 48
15 l47 -1 -34 -14z m170 0 c0 -5 -12 -11 -26 -13 -18 -2 -25 1 -25 13 0 12 7
15 25 13 14 -2 26 -7 26 -13z m99 -6 c0 -5 -9 -9 -20 -9 -19 0 -26 11 -14 23
8 8 34 -3 34 -14z m-4095 1 c-3 -5 -15 -10 -25 -10 -10 0 -22 5 -25 10 -4 6 7
10 25 10 18 0 29 -4 25 -10z m1465 0 c0 -5 -9 -10 -21 -10 -11 0 -17 5 -14 10
3 6 13 10 21 10 8 0 14 -4 14 -10z m1172 -2 c-9 -9 -15 -9 -24 0 -9 9 -7 12
12 12 19 0 21 -3 12 -12z m1078 2 c0 -5 -7 -10 -15 -10 -8 0 -15 5 -15 10 0 6
7 10 15 10 8 0 15 -4 15 -10z m-4130 -130 c0 -5 -7 -10 -15 -10 -8 0 -15 5
-15 10 0 6 7 10 15 10 8 0 15 -4 15 -10z m1239 -4 c8 -10 9 -16 1 -21 -13 -8
-30 3 -30 21 0 18 14 18 29 0z m299 2 c19 -19 14 -30 -10 -26 -13 2 -24 11
-26 21 -4 20 18 23 36 5z m290 -7 c3 -8 -1 -12 -9 -9 -7 2 -15 10 -17 17 -3 8
1 12 9 9 7 -2 15 -10 17 -17z m766 -13 c-3 -4 -19 -8 -37 -8 -18 0 -45 -1 -60
-1 -33 -1 -42 5 -32 21 4 7 21 9 45 5 23 -4 41 -2 44 4 5 7 13 7 26 -1 10 -7
16 -16 14 -20z m530 17 c3 -10 -3 -17 -20 -21 -31 -8 -40 0 -23 20 18 20 35
20 43 1z m449 3 c3 -10 11 -10 37 -1 24 9 37 10 47 2 21 -18 5 -29 -41 -29
-39 0 -66 13 -66 32 0 13 18 9 23 -4z m177 -14 c0 -16 -18 -18 -39 -5 -11 7
-10 11 5 19 21 12 34 7 34 -14z m135 8 c47 2 69 -1 72 -9 6 -16 -53 -18 -63
-2 -4 8 -9 8 -17 0 -22 -22 -106 -4 -91 20 4 7 10 6 19 -1 7 -6 42 -9 80 -8z
m808 4 c22 -17 22 -26 -2 -26 -21 0 -45 23 -34 33 9 10 15 8 36 -7z m341 -6
c15 0 17 -3 8 -12 -9 -9 -17 -9 -36 2 -14 7 -23 17 -20 22 4 6 11 5 17 -1 6
-6 20 -11 31 -11z m244 2 c2 -7 -3 -12 -12 -12 -9 0 -16 7 -16 16 0 17 22 14
28 -4z m156 12 c28 -11 18 -34 -13 -34 -31 0 -47 13 -36 30 7 11 26 13 49 4z
m-5546 -16 c-5 -15 -78 -24 -78 -9 0 9 24 17 63 20 11 0 17 -4 15 -11z m232
-3 c0 -9 -9 -15 -25 -15 -26 0 -34 15 -12 23 23 10 37 7 37 -8z m116 5 c8 0
14 -4 14 -10 0 -5 -16 -10 -35 -10 -33 0 -43 8 -28 24 4 3 13 4 21 1 7 -3 20
-5 28 -5z m694 -5 c0 -8 -6 -15 -14 -15 -17 0 -28 14 -19 24 12 12 33 6 33 -9z
m180 0 c-7 -8 -21 -15 -31 -15 -11 0 -19 7 -19 15 0 10 10 15 31 15 27 0 30
-2 19 -15z m234 9 c9 -3 13 -10 10 -15 -7 -11 -64 -12 -64 -1 0 21 24 28 54
16z m86 -9 c0 -8 -4 -15 -10 -15 -5 0 -10 7 -10 15 0 8 5 15 10 15 6 0 10 -7
10 -15z m245 5 c3 -5 4 -14 0 -20 -8 -13 -35 -1 -35 16 0 16 26 19 35 4z m219
-5 c-4 -8 -15 -15 -26 -15 -17 0 -18 3 -8 15 7 8 19 15 26 15 8 0 11 -6 8 -15z
m264 10 c46 -11 10 -23 -68 -23 -105 1 -128 22 -27 25 40 2 82 1 95 -2z m242
-16 c0 -5 -7 -9 -15 -9 -15 0 -20 12 -9 23 8 8 24 -1 24 -14z m514 15 c9 -3
16 -10 16 -16 0 -14 -43 -5 -48 10 -4 13 7 15 32 6z m116 -9 c0 -10 -11 -15
-35 -15 -39 0 -48 16 -12 23 41 8 47 7 47 -8z m439 9 c48 -10 37 -24 -19 -24
-47 0 -66 12 -37 23 18 8 21 8 56 1z m1346 -4 c23 0 27 -3 15 -10 -8 -5 -32
-10 -52 -10 -28 0 -38 4 -38 16 0 12 6 15 23 10 12 -3 36 -6 52 -6z m393 -7
c2 -9 -7 -13 -27 -13 -30 0 -39 9 -24 24 11 10 46 3 51 -11z m-4573 -3 c-3 -5
-19 -10 -35 -10 -16 0 -32 5 -35 10 -4 6 10 10 35 10 25 0 39 -4 35 -10z m370
0 c4 -6 -5 -10 -19 -10 -14 0 -26 5 -26 10 0 6 9 10 19 10 11 0 23 -4 26 -10z
m755 0 c0 -5 -7 -10 -15 -10 -8 0 -15 5 -15 10 0 6 7 10 15 10 8 0 15 -4 15
-10z m570 0 c0 -5 -11 -10 -25 -10 -14 0 -25 5 -25 10 0 6 11 10 25 10 14 0
25 -4 25 -10z m360 0 c0 -5 -9 -10 -20 -10 -11 0 -20 5 -20 10 0 6 9 10 20 10
11 0 20 -4 20 -10z m620 0 c0 -5 -9 -10 -20 -10 -11 0 -20 5 -20 10 0 6 9 10
20 10 11 0 20 -4 20 -10z m860 0 c0 -5 -6 -10 -14 -10 -8 0 -18 5 -21 10 -3 6
3 10 14 10 12 0 21 -4 21 -10z m345 0 c-3 -5 -13 -10 -21 -10 -8 0 -14 5 -14
10 0 6 9 10 21 10 11 0 17 -4 14 -10z m405 0 c0 -5 -7 -10 -15 -10 -8 0 -15 5
-15 10 0 6 7 10 15 10 8 0 15 -4 15 -10z m-2795 -130 c3 -5 19 -10 36 -10 16
0 29 -4 29 -10 0 -5 -9 -10 -20 -10 -28 0 -100 23 -100 32 0 12 48 10 55 -2z
m369 -21 c-7 -11 -54 -12 -54 -1 0 15 10 19 35 14 14 -2 22 -8 19 -13z m49 15
c11 -11 -3 -24 -18 -18 -8 4 -12 10 -9 15 6 11 18 12 27 3z m237 -9 c0 -8 -7
-15 -15 -15 -16 0 -20 12 -8 23 11 12 23 8 23 -8z m-760 -5 c0 -5 -7 -10 -15
-10 -8 0 -15 5 -15 10 0 6 7 10 15 10 8 0 15 -4 15 -10z m230 0 c0 -5 -7 -10
-15 -10 -8 0 -15 5 -15 10 0 6 7 10 15 10 8 0 15 -4 15 -10z m60 0 c0 -5 -7
-10 -15 -10 -8 0 -15 5 -15 10 0 6 7 10 15 10 8 0 15 -4 15 -10z m430 0 c0 -5
-9 -10 -20 -10 -11 0 -20 5 -20 10 0 6 9 10 20 10 11 0 20 -4 20 -10z m380 0
c0 -5 -9 -10 -21 -10 -11 0 -17 5 -14 10 3 6 13 10 21 10 8 0 14 -4 14 -10z
m-1165 -121 c33 0 72 -4 86 -10 17 -6 34 -7 51 0 20 8 29 6 39 -5 6 -8 10 -17
7 -20 -3 -2 -76 -6 -162 -7 -126 -2 -158 1 -165 12 -17 27 -2 39 42 33 23 -2
69 -4 102 -3z m761 -37 c-10 -9 -36 14 -36 32 0 20 1 20 20 -4 10 -14 17 -26
16 -28z m228 32 c27 -10 19 -34 -12 -34 -35 0 -45 9 -31 27 13 15 20 16 43 7z
m-568 -15 c10 -17 -17 -29 -39 -17 -16 8 -17 12 -6 19 19 12 36 11 45 -2z
m464 -10 c0 -5 -18 -9 -40 -9 -36 0 -49 8 -35 21 8 8 75 -3 75 -12z m258 3 c2
-7 -3 -12 -12 -12 -9 0 -16 7 -16 16 0 17 22 14 28 -4z m170 0 c2 -7 -3 -12
-12 -12 -9 0 -16 7 -16 16 0 17 22 14 28 -4z m170 1 c-2 -12 -13 -17 -37 -17
-45 0 -52 21 -9 27 18 2 37 5 41 5 5 1 7 -6 5 -15z m-1148 -3 c-19 -13 -30
-13 -30 0 0 6 10 10 23 10 18 0 19 -2 7 -10z m920 0 c0 -5 -7 -10 -15 -10 -8
0 -15 5 -15 10 0 6 7 10 15 10 8 0 15 -4 15 -10z m-3300 -49 c-8 -6 -26 -7
-41 -4 -20 4 -30 0 -38 -15 -6 -11 -20 -22 -31 -25 -17 -4 -20 0 -20 24 l0 29
73 0 c48 0 67 -3 57 -9z m267 3 c-10 -10 -84 -11 -172 -4 -76 7 -74 7 49 9 71
0 127 -2 123 -5z m118 -4 c-3 -5 -15 -10 -25 -10 -10 0 -22 5 -25 10 -4 6 7
10 25 10 18 0 29 -4 25 -10z m435 -1 c0 -8 -19 -9 -64 -4 -36 3 -66 2 -70 -3
-3 -5 -26 -6 -53 -2 -26 4 -52 5 -58 2 -14 -9 -68 -3 -79 8 -7 7 50 10 157 10
116 0 167 -3 167 -11z m-773 -34 c16 -11 40 -14 90 -11 38 2 73 5 78 7 6 1 17
-1 25 -4 8 -4 40 -8 70 -9 l55 -3 0 -40 0 -40 -55 -6 c-30 -3 -61 -2 -67 4 -7
5 -21 6 -30 2 -10 -4 -48 -6 -85 -5 -63 1 -89 -10 -53 -24 26 -9 16 -26 -15
-26 -22 0 -28 4 -24 15 4 10 0 15 -13 15 -22 0 -50 30 -59 65 -4 18 0 32 17
50 28 29 37 30 66 10z m389 1 c16 -11 51 -14 148 -13 138 1 146 -2 146 -55 0
-36 -12 -39 -192 -41 l-153 -2 -3 63 c-3 54 -1 62 15 62 10 0 28 -6 39 -14z
m-505 -71 c1 -25 2 -53 3 -62 1 -13 -8 -19 -31 -21 -33 -3 -33 -3 -33 40 0 84
59 125 61 43z m880 23 c8 -92 6 -108 -13 -108 -11 0 -18 5 -16 12 3 7 -1 19
-8 26 -9 9 -11 19 -5 30 5 9 12 25 15 35 6 20 25 23 27 5z m-131 -93 c0 -8 -7
-15 -16 -15 -14 0 -14 3 -4 15 7 8 14 15 16 15 2 0 4 -7 4 -15z m1510 -240 c0
-8 -4 -15 -9 -15 -13 0 -22 16 -14 24 11 11 23 6 23 -9z m-1728 -57 c-32 -55
-202 -78 -202 -28 0 4 33 11 74 15 64 6 77 10 102 36 34 35 51 20 26 -23z
m608 29 c0 -31 -55 -57 -121 -57 -45 0 -50 2 -47 21 3 18 10 21 67 22 49 2 66
6 75 20 15 24 26 21 26 -6z m225 13 c3 -5 24 -10 46 -10 33 0 40 -3 37 -17 -4
-25 -79 -30 -102 -8 -9 9 -16 23 -16 31 0 16 26 19 35 4z m375 -7 c0 -18 -85
-28 -120 -13 -48 20 -35 28 45 27 52 -1 75 -5 75 -14z m-950 -19 c0 -31 -25
-87 -58 -131 -27 -37 -95 -64 -113 -46 -16 16 -2 33 26 33 26 0 72 48 81 86 3
13 1 37 -4 54 l-11 30 40 0 c35 0 39 -2 39 -26z m2288 -368 c16 -19 40 -61 52
-93 44 -117 7 -343 -56 -343 -33 0 -36 12 -12 60 46 92 33 256 -27 344 -14 20
-25 43 -25 51 0 27 37 16 68 -19z m-188 -55 c0 -79 -24 -97 -34 -26 -8 49 -3
65 20 65 10 0 14 -12 14 -39z m-324 -63 c-3 -50 -6 -113 -6 -140 0 -26 -4 -48
-10 -48 -6 0 -10 53 -10 140 0 123 2 140 16 140 15 0 16 -11 10 -92z m222 45
c-2 -36 -7 -49 -20 -51 -15 -3 -18 4 -18 47 0 45 3 51 21 51 18 0 20 -5 17
-47z m-505 -121 c-3 -75 -7 -139 -9 -141 -12 -14 -18 24 -22 141 -3 99 -1 133
9 139 7 4 16 6 20 3 4 -2 5 -66 2 -142z m-213 -57 c0 -96 -4 -176 -8 -179 -5
-3 -18 -3 -30 1 -20 5 -20 7 -6 28 11 17 14 44 12 101 l-3 79 -38 3 c-32 3
-43 -2 -67 -28 -28 -30 -30 -38 -30 -107 0 -55 -3 -74 -12 -71 -8 3 -14 27
-16 62 -5 96 49 176 121 176 34 0 47 18 47 65 0 43 7 58 21 49 5 -3 9 -83 9
-179z m1308 173 c27 -27 7 -78 -30 -78 -29 0 -42 37 -23 66 17 26 35 30 53 12z
m-1686 -123 c4 -209 4 -218 -9 -222 -10 -4 -13 28 -13 135 0 77 -3 147 -6 156
-3 9 -17 16 -30 16 -23 0 -31 10 -17 23 3 4 21 7 40 7 l33 0 2 -115z m-805
-27 c-3 -13 -9 -62 -12 -110 -6 -67 -11 -88 -22 -88 -11 0 -13 8 -9 28 3 15 8
64 12 110 5 63 9 82 21 82 11 0 14 -7 10 -22z m-225 -95 c1 -40 2 -80 2 -88 1
-8 -3 -16 -9 -17 -5 -2 -11 15 -12 37 -2 22 -8 66 -14 98 -11 64 -4 91 18 62
7 -11 14 -49 15 -92z m789 87 c11 0 38 -62 32 -72 -9 -17 -22 -7 -28 22 -5 22
-12 30 -29 30 -12 0 -27 -5 -34 -12 -6 -6 -15 -8 -19 -4 -11 11 38 48 54 41 8
-3 19 -5 24 -5z m-115 -54 c15 -6 16 -8 0 -24 -10 -12 -16 -36 -16 -65 0 -37
-4 -47 -16 -47 -12 0 -15 6 -10 25 3 13 2 45 -4 70 -7 33 -7 52 1 68 l12 21 8
-20 c4 -12 15 -24 25 -28z m-196 7 c27 -24 31 -36 33 -83 2 -68 -16 -78 -23
-13 -3 26 -11 58 -18 69 -22 41 -89 39 -122 -2 -30 -37 -40 -65 -34 -89 5 -19
2 -25 -10 -25 -45 0 19 150 70 163 46 12 75 6 104 -20z m2245 -3 c21 -24 17
-83 -10 -124 -13 -20 -26 -26 -51 -26 -40 0 -43 12 -9 34 29 19 31 37 9 71
-31 48 22 88 61 45z m-2604 -98 c8 -38 4 -42 -33 -42 -31 0 -32 2 -19 28 5 9
12 25 15 35 9 27 30 15 37 -21z m1788 -1 c19 -12 6 -41 -18 -41 -26 0 -36 17
-21 35 14 17 20 18 39 6z m-284 -31 c0 -8 -10 -16 -22 -18 -22 -3 -32 16 -16
32 12 11 38 2 38 -14z m-3704 -99 c21 -17 22 -20 9 -52 -22 -56 -29 -60 -84
-57 -40 2 -51 7 -51 20 0 17 80 108 94 108 5 0 19 -8 32 -19z m4193 -27 c20
-19 21 -58 3 -73 -23 -18 -75 -25 -92 -11 -11 9 -14 23 -9 49 4 20 9 39 11 44
8 13 71 7 87 -9z m-1649 -4 c5 -8 11 -7 20 0 8 7 24 9 36 5 17 -6 20 -12 15
-37 -3 -17 -6 -42 -6 -55 0 -20 -4 -24 -22 -21 -17 2 -23 10 -23 30 0 14 -3
30 -7 34 -5 4 -8 -4 -8 -19 0 -36 -10 -57 -26 -57 -8 0 -15 3 -15 8 -5 28 -8
99 -4 110 5 15 31 16 40 2z m1305 -44 c0 -57 -17 -83 -46 -72 -12 5 -15 14
-11 34 3 15 2 34 -3 42 -13 21 7 50 35 50 23 0 25 -3 25 -54z m1100 34 c11
-11 20 -24 20 -28 0 -19 -14 -21 -31 -6 -13 11 -28 15 -49 11 -34 -7 -37 -2
-13 25 21 24 48 23 73 -2z m287 -36 c2 -45 -9 -59 -35 -43 -16 10 -29 10 -56
2 -19 -6 -37 -8 -40 -5 -8 8 -7 67 1 76 4 4 34 6 68 4 59 -3 60 -3 62 -34z
m750 19 c4 -11 -4 -25 -27 -45 -19 -15 -37 -28 -41 -28 -4 0 -14 12 -24 26
-16 25 -16 26 2 20 13 -4 27 2 43 19 28 29 38 31 47 8z m-3157 -1 c0 -10 -22
-32 -32 -32 -4 0 -8 9 -8 20 0 13 7 20 20 20 11 0 20 -4 20 -8z m5334 -32 c-5
-5 -21 -12 -36 -15 -32 -8 -48 15 -28 40 10 13 16 13 42 -1 17 -9 26 -19 22
-24z m-464 15 c15 -18 -2 -45 -29 -45 -10 0 -26 7 -37 15 -19 15 -19 15 0 30
11 8 27 15 37 15 9 0 22 -7 29 -15z m165 4 c10 -15 -1 -23 -20 -15 -9 3 -13
10 -10 16 8 13 22 13 30 -1z m-4856 -15 c2 -2 -12 -4 -32 -4 -20 0 -37 4 -37
10 0 8 58 3 69 -6z m2439 -1 c-5 -25 -28 -28 -28 -4 0 12 6 21 16 21 9 0 14
-7 12 -17z m-2348 -8 c0 -8 -4 -15 -10 -15 -5 0 -10 7 -10 15 0 8 5 15 10 15
6 0 10 -7 10 -15z m130 5 c0 -5 -7 -10 -15 -10 -8 0 -15 5 -15 10 0 6 7 10 15
10 8 0 15 -4 15 -10z"/>
<path d="M3893 3684 c-7 -3 -13 -18 -13 -33 0 -20 7 -31 25 -39 58 -26 119 -1
113 46 -3 25 -6 27 -58 29 -30 1 -61 -1 -67 -3z"/>
<path d="M2840 2600 c0 -19 5 -30 14 -30 20 0 26 12 19 38 -8 33 -33 27 -33
-8z"/>
<path d="M3760 2610 c-13 -25 -6 -40 21 -40 16 0 20 6 17 27 -4 34 -23 41 -38
13z"/>
<path d="M3982 2543 c4 -36 33 -39 33 -3 0 16 -6 26 -18 28 -15 3 -18 -2 -15
-25z"/>
<path d="M5450 2540 c0 -19 5 -30 14 -30 17 0 28 24 20 45 -11 27 -34 17 -34
-15z"/>
<path d="M4822 2536 c1 -10 8 -17 13 -17 15 1 12 24 -3 29 -9 3 -13 -2 -10
-12z"/>
<path d="M5294 2599 c-13 -26 -13 -36 -3 -60 14 -36 39 -35 57 4 11 23 11 31
-5 57 -22 38 -29 38 -49 -1z"/>
<path d="M3560 2540 c0 -25 4 -31 18 -28 11 2 17 12 17 28 0 16 -6 26 -17 28
-14 3 -18 -3 -18 -28z"/>
<path d="M4365 2531 c-10 -17 12 -21 25 -6 10 12 10 15 -3 15 -9 0 -18 -4 -22
-9z"/>
<path d="M4561 2556 c-9 -11 -8 -17 5 -30 21 -22 39 -15 39 15 0 28 -26 37
-44 15z"/>
<path d="M6022 2543 c3 -32 25 -37 42 -10 8 14 8 20 -4 27 -28 18 -41 11 -38
-17z"/>
</g>
</svg>
